<?xml version="1.0" encoding="UTF-8"?>
<svg width="130px" height="61px" viewBox="0 0 167 61" version="1.1" xmlns="http://www.w3.org/2000/svg" xmlns:xlink="http://www.w3.org/1999/xlink">
    <title>branding/logo-ubs-actual</title>
    <g id="branding/@logo-ubs-actual" stroke="none" stroke-width="1" fill="none" fill-rule="evenodd">
        <g id="ubs_semibold_rgb_20_31x84" fill-rule="nonzero">
            <path d="M97.6171005,36.3059573 C97.6171005,48.7919214 90.7798351,50.2902202 83.9425496,50.2902202 C72.1857642,50.2902202 69.6843325,44.2969848 69.6843325,35.7232822 L69.6843325,11.5420843 L65.3484787,11.5420843 L65.3484787,9.2113437 L81.7746126,9.2113437 L81.7746126,11.5420843 L77.105264,11.5420843 L77.105264,35.0157539 C77.105264,43.2981189 79.2731809,47.4184557 85.2349472,47.4184557 C91.3217589,47.4184557 94.2818113,44.421838 94.2818113,35.8065244 L94.2818113,11.5420843 L89.9042958,11.5420843 L89.9042958,9.2113437 L101.577697,9.2113437 L101.577697,11.5420843 L97.6170804,11.5420843 L97.6170804,36.3059573 L97.6171005,36.3059573 Z M108.7902,47.5016979 L108.7902,11.5420843 L104.53775,11.5420843 L104.53775,9.2113437 L122.756644,9.2113437 C130.51109,9.2113437 134.346642,13.581407 134.346642,18.7006901 C134.346642,24.1529418 129.38546,27.2328017 124.966223,28.1484254 C133.554526,28.9391959 135.88917,34.4330587 135.88917,38.4701935 C135.88917,46.7109073 128.843456,49.8324184 121.922787,49.8324184 L104.245897,49.8324184 L104.245897,47.5016979 L108.7902,47.5016979 L108.7902,47.5016979 Z M126.92571,19.1585321 C126.92571,15.3711439 124.966243,11.5420843 120.672051,11.5420843 L116.044424,11.5420843 L116.044424,27.1495394 L120.171768,27.1495394 C124.716051,27.1495394 126.92571,23.3205201 126.92571,19.1585321 L126.92571,19.1585321 Z M128.384896,38.4702136 C128.384896,33.0596131 126.050171,29.4386489 120.588707,29.4386489 L116.044424,29.4386489 L116.044424,47.5016979 L119.713188,47.5016979 C125.508187,47.5016979 128.384896,44.0889095 128.384896,38.4702136 L128.384896,38.4702136 Z M154.066343,11.0010001 C149.772231,11.0010001 147.020628,13.5398362 147.020628,17.9515708 C147.020628,21.9470544 151.356482,23.8616043 155.56725,25.2766609 C158.068682,26.1506937 161.237183,27.3160439 163.4051,29.397058 C165.781466,31.6444962 167.073884,34.6411541 166.99048,38.4285624 C166.823773,45.5039662 161.862511,50.2902403 153.1075,50.3318916 C149.813893,50.3318916 144.685924,49.582712 141.600826,47.7930556 L141.267331,37.1383389 L143.852147,37.1383389 C144.060596,44.2970049 147.437527,48.0428022 153.357631,48.0428022 C158.110364,48.0428022 160.736901,44.87968 160.736901,40.0517747 C160.736901,35.8897867 157.276587,34.10009 152.023552,32.3520848 C150.314195,31.7693896 146.937265,30.5207771 144.560898,28.1900364 C142.434704,26.0674515 141.434119,23.4037824 141.434119,20.5736088 C141.434119,12.2912438 147.354163,8.71193085 154.691771,8.71193085 C157.610101,8.71193085 161.987657,9.752448 164.530751,11.2091156 L164.780922,20.4487556 L162.196107,20.4487556 C161.654062,13.8727647 158.777413,11.0010001 154.066343,11.0010001 L154.066343,11.0010001 Z" id="Shape" fill="#E60000"></path>
            <path d="M45.0489979,17.4318349 L43.9622506,18.3357995 L45.1092854,22.0721689 L41.6684224,20.2039943 L40.5213876,21.1080191 L44.3243788,23.1567897 L40.2800962,26.4109335 L39.193349,24.9647993 L40.6423051,23.8196515 L39.5555578,22.5541534 L38.1069641,23.6992408 L37.0204987,22.3130506 L38.4690924,21.1681843 L37.382627,19.7822152 L29.9577489,25.928929 L37.0204786,31.5934372 L38.287847,30.0265908 C39.193349,30.0870574 39.8573985,30.7499192 40.2195469,31.5934372 L38.952118,33.1605651 L39.7367226,33.7626788 C41.4871771,32.1961138 43.7813072,31.1716782 46.1354028,31.1716782 C51.0852075,31.1716782 54.9486072,35.209396 54.9486072,40.1504954 C54.9486072,41.7775673 54.5261309,43.5256328 53.620629,44.971767 L54.9486072,45.9961423 C54.8882592,46.9606338 53.9827573,47.9850292 53.0772553,48.2258505 L51.8095446,47.2014753 C50.0590901,48.8890138 47.765262,49.7924759 45.3505164,49.7924759 C40.4007117,49.7924759 36.5373724,45.8757517 36.5373724,40.8741254 C36.5373724,39.2471138 37.0204585,37.5595149 37.7447352,36.1733247 L37.0204585,35.5107443 L35.7527477,37.19772 C34.8472458,37.0773093 34.0623392,36.4746127 33.8211083,35.5107443 L35.0887586,34.0040831 L29.1125345,29.0624007 L29.1125345,36.8963717 L31.1045018,36.9568987 C31.3460147,37.258247 31.52726,37.6799457 31.52726,38.1622115 C31.52726,38.5839706 31.3460147,39.0661761 31.1648297,39.4274283 L29.1125144,39.4274283 L29.1125144,40.3919198 C33.4588995,41.1150271 37.0807058,44.7908696 37.0807058,49.2503263 C37.0807058,53.8906603 33.5192273,57.5665028 29.1125144,58.2896101 L29.1125144,59.856738 C28.6900381,60.0975593 28.1466645,60.278497 27.6639207,60.278497 C27.1205471,60.278497 26.5168255,60.0975593 26.0337998,59.856738 L26.0337998,58.2896101 C21.6273688,57.5665028 18.1865058,53.8906603 18.1865058,49.2503263 C18.1865058,44.7908696 21.6273688,41.115007 26.0337998,40.4518638 L26.0337998,39.4274283 L23.9815047,39.4274283 C23.7399918,39.0661962 23.6193764,38.5839706 23.6193764,38.1622115 C23.6193764,37.6799457 23.7399918,37.258247 23.9815047,36.8963717 L26.03382,36.8963717 L26.03382,29.0624007 L19.9975499,34.0040831 L21.3255281,35.5107443 C21.0236673,36.4746127 20.2387808,37.0772892 19.3335608,37.19772 L18.0658501,35.5107443 L17.2809636,36.1733247 C18.1261981,37.5595149 18.5486743,39.2471138 18.5486743,40.8741254 C18.5486743,45.8757517 14.6853351,49.7924759 9.73553041,49.7924759 C7.38113278,49.7924759 5.02695666,48.8890138 3.33685018,47.2014753 L2.00887198,48.2258505 C1.16363752,47.9850493 0.258115458,46.960674 0.1375,45.9961825 L1.40515034,44.9718072 C0.620545778,43.5256529 0.1375,41.7776075 0.1375,40.1505155 C0.1375,35.209396 4.00083928,31.1716983 8.95064394,31.1716983 C11.3653694,31.1716983 13.6591573,32.1961339 15.4096118,33.7626989 L16.1342308,33.2205292 L14.86652,31.5934573 C15.1683808,30.7499393 15.9529854,30.1473231 16.8585477,30.0266109 L18.1261981,31.5934573 L25.1888875,25.9289491 L17.7640698,19.7822353 L16.6773225,21.1682044 L18.1262182,22.3130707 L17.0394709,23.6992609 L15.5908773,22.5541735 L14.5044119,23.8196716 L15.8927381,24.9648194 L14.8062727,26.4109536 L10.8220361,23.1568098 L14.5647599,21.1080392 L13.4780126,20.2040144 L10.0374315,22.072189 L11.1841845,18.3358196 L10.0977191,17.431855 L8.83006876,21.5297379 L4.78544384,18.2756343 L5.87219113,16.9499108 L7.26045692,18.0947168 L8.40755221,16.7689932 L6.95865651,15.5034951 L8.04534338,14.2379367 L9.49399745,15.3228389 L10.520135,14.0572804 L7.38113278,11.5864694 C7.6829332,10.5620741 8.3472042,9.7182948 9.31277222,9.1156584 L26.03382,22.7350508 L26.03382,13.6353003 L24.3436933,13.6353003 L24.3436933,15.3830241 L22.6535063,15.3830241 L22.6535063,13.6353003 L20.9027699,13.6353003 L20.9027699,15.3830241 L19.1523154,15.3830241 L19.1523154,10.2607459 L23.1363306,11.948003 L23.1363306,10.5018687 L19.4541763,8.99520753 L23.1363306,7.54877175 L23.1363306,6.16286294 L19.1523154,7.7297094 L19.1523154,2.54718559 L20.9027699,2.54718559 L20.9027699,4.41536027 L22.6535063,4.41536027 L22.6535063,2.54718559 L24.3436933,2.54718559 L24.3436933,4.41536027 L26.03382,4.41536027 L26.03382,0.31741705 C26.5168657,0.13655981 27.0602394,0.01612903 27.6033311,0.01612903 C28.0864172,0.01612903 28.629529,0.13655981 29.1125547,0.31741705 L29.1125547,22.7350307 L45.8336024,9.1156383 C46.7391043,9.7182746 47.4031136,10.5620741 47.7652418,11.5864493 L44.5659118,14.0572603 L45.6523772,15.3228188 L47.1012527,14.2379166 L48.1877181,15.503475 L46.7391245,16.7689731 L47.8255899,18.0946967 L49.2744856,16.9498907 L50.3609509,18.2756142 L46.3163663,21.5296977 L45.0489979,17.4318349 L45.0489979,17.4318349 Z M10.8822834,42.0789357 C10.8822834,43.5256529 11.9690307,44.4296175 13.2367414,44.5500281 L11.1237962,46.1771 C9.67518241,45.6343675 8.3472042,43.8868849 8.3472042,42.3802237 C8.3472042,41.898581 8.46781966,41.5972327 8.58843512,41.2354177 C8.40753207,41.2354177 8.28663471,41.2958844 8.16601925,41.2958844 C6.2343194,41.2958844 4.60448038,39.4879351 4.2423521,37.619479 L6.41556477,35.932443 C6.35493486,36.1733247 6.35493486,36.354202 6.35493486,36.5351397 C6.35493486,37.7404525 7.50203015,38.8247919 8.70933248,38.8247919 C9.97704323,38.8247919 11.1841241,37.7404525 11.1841241,36.4746127 C11.1841241,34.9080678 9.97704323,33.8836724 8.46781966,33.8836724 C5.5099823,33.8836724 2.61249294,36.7160572 2.61249294,40.4518638 C2.61249294,41.536766 2.85372386,42.5611614 3.33683004,43.4651259 L4.66480825,42.4407306 C5.57031017,42.8624896 6.29464727,43.7664541 6.53616009,44.7908495 L5.20818189,45.8152247 C6.47583222,46.900127 8.04532325,47.3824129 9.67518241,47.3824129 C13.0554759,47.3824129 15.7720824,44.6704187 15.7720824,42.2597929 C15.7720824,40.8741052 14.8062324,39.6687924 13.3573367,39.6687924 C12.0293585,39.6688125 10.8822834,40.693248 10.8822834,42.0789357 L10.8822834,42.0789357 Z M28.8106939,47.261962 C28.8106939,48.5877459 29.8971592,49.6720853 31.16487,49.6720853 C32.0703719,49.6720853 32.4325203,49.3107929 33.0965094,48.7680604 L33.0965094,51.4800345 C32.4325203,51.8418294 31.7685312,52.0222042 31.0441941,52.0222042 C29.5956005,52.0222042 28.3882176,51.6004452 27.6033311,50.3351883 C26.7583786,51.6004653 25.5510762,52.0222042 24.1021402,52.0222042 C23.4381511,52.0222042 22.7138745,51.8418495 22.0498854,51.4800345 L22.0498854,48.7680604 C22.6535466,49.3707571 23.1363507,49.6720853 23.9815248,49.6720853 C25.309503,49.6720853 26.3357009,48.5877459 26.3357009,47.261962 C26.3357009,45.9961825 25.4907484,44.8513765 24.1021402,44.8513765 C21.6274091,44.8513765 20.6012313,47.2014954 20.6012313,49.370737 C20.6012313,52.5649367 22.9554074,55.276348 26.0338401,55.8190202 L26.0338401,54.1920086 C26.5168657,53.9506043 27.0602595,53.8906603 27.5430637,53.8906603 C28.0864373,53.8906603 28.629529,53.9506043 29.1125547,54.1920086 L29.1125547,55.8190202 C31.9497766,55.3973215 34.5454051,52.3839991 34.5454051,49.370737 C34.5454051,47.1410287 33.6398831,44.8513765 31.0441941,44.8513765 C29.7162159,44.8513765 28.8106939,45.9961825 28.8106939,47.261962 L28.8106939,47.261962 Z M43.8416351,36.4746127 C43.8416351,37.6799256 45.1092854,38.8247919 46.3769761,38.8247919 C47.5840569,38.8247919 48.7310918,37.7404525 48.7310918,36.5351397 C48.7310918,36.354202 48.6707438,36.1733247 48.6707438,35.932443 L50.7833869,37.619479 C50.4211983,39.6688125 48.6104562,41.4762591 46.4975714,41.2354378 C46.6181868,41.5972528 46.6787563,41.898581 46.6787563,42.3802438 C46.6787563,43.886905 45.3504761,45.6343876 43.9018824,46.1771201 L41.7889976,44.5500482 C43.1172577,44.4296376 44.2037231,43.5256529 44.2037231,42.0789558 C44.2037231,40.6932681 42.9963604,39.6688326 41.6683822,39.6688326 C40.280056,39.6688326 39.2539386,40.8741455 39.2539386,42.3203601 C39.2539386,44.0678427 41.3665214,47.3824531 45.411106,47.3824531 C47.040945,47.3824531 48.6104562,46.9001672 49.817537,45.8152649 L48.4895588,44.7908897 C48.7914196,43.7664944 49.3950607,42.8625298 50.3609107,42.4407708 L51.6888889,43.4651661 C52.1719346,42.5612016 52.4737753,41.5368062 52.4737753,40.451904 C52.4737753,37.5595551 50.2402751,33.8837126 46.6787362,33.8837126 C45.1696133,33.8837126 43.8416351,34.9080678 43.8416351,36.4746127 L43.8416351,36.4746127 Z" id="Shape" fill="#000000"></path>
        </g>
    </g>
</svg>
